<svg xmlns="http://www.w3.org/2000/svg" viewBox="0 0 148.5 53.6" role="img" aria-label="NINETY">
  <style type="text/css">
    .cls-1 { fill: #ecf5f4; }
    .cls-2 { fill: #34694e; }
    .cls-3 { fill: #0b241b; }
    .cls-4 { fill: #113d29; }
    .cls-5 { fill: #a1ee58; }
  </style>
  <path class="cls-1" d="m14.9 38.9-4.9-14.5v14.4h-4v-23.9h4.2l4.7 14.4h0.1v-14.4h3.9v24h-4z"/>
  <path class="cls-1" d="m22.1 38.8v-23.9h4.1v23.9h-4.1z"/>
  <path class="cls-1" d="m38.1 38.8-4.6-14.2h-0.1v14.2h-3.9v-23.9h4.1l4.6 14.7h0.1v-14.7h3.9v24l-4.1-0.1z"/>
  <path class="cls-1" d="m49.5 18.5v6h5v3.8h-5v6.8h6.6v3.7h-10.7v-23.9h10.6v3.6h-6.5z"/>
  <path class="cls-1" d="m65.5 18.6v20.3h-4v-20.3h-4.1v-3.7h12.2v3.7h-4.1z"/>
  <path class="cls-1" d="m79.1 39h-4v-9.6l-4.5-14.5h4.1l2.6 8.9h0.1l2.1-8.9h4.2l-4.6 14.1v10z"/>
  <polygon class="cls-2" points="90.4 6.4 90.4 46.8 93.1 44.2 139.8 9.3 142.4 6.4"/>
  <polyline class="cls-3" points="90.5 46.8 142.4 46.8 142.4 6.4 139.6 9.2 93.2 44.2"/>
  <polygon class="cls-4" points="93.1 9.3 93.1 44.3 139.6 44.3 139.6 9.2"/>
  <path class="cls-5" d="m112.8 36.6c-0.9 1.5-2.5 2.5-4.7 2.5h-1.1c-3.5-0.1-5.1-2.5-5.1-5.7v-1.2h3.7v1.3c0 1.1 0.3 2 1.6 2.1s1.7-0.4 1.7-0.6 0.5-0.7 0.5-1.7v-4.9c-0.9 1.1-2.3 1.7-3.9 1.7s-4.3-1.2-4.3-5.3v-4.3c0-3.2 2.1-5.9 5.1-5.9h0.8c3.4-0.1 5.7 2.3 5.7 6v12.4c0 1.5-0.2 3 0 2.6v1zm-4.1-18.2c-0.3-0.2-0.6-0.3-1.8-0.3-1 0.4-1.9 0.6-1.9 3.9 0 2 0 3.1 0.2 3.7 0.4 1.1 1.6 1.1 2.1 1.1 0.5-0.1 1.6-0.3 1.6-1.9v-4c0-1.3-0.2-2-0.2-2.5z"/>
  <path class="cls-5" d="m121 39.1h-0.6c-3.3 0-5.3-2.3-5.3-5.6v-13c0-3 2.1-6 5.4-6h0.6c3.5 0 5.7 2.5 5.7 5.9v13.2c0 3.2-2 5.5-5.8 5.5zm1.8-18.6c0-1.1-0.6-2.3-2.2-2.3-1.2 0.1-1.7 0.8-1.7 2.2v13c0 1.1 0.5 2.1 1.7 2.1 2.2 0 2.2-1.6 2.2-2.3v-12.7z"/>
  <path class="cls-5" d="m131.3 20.7-0.3 0.5 0.1-0.2v0.3l-0.6 1.2h-1l1-3.5h-0.9v-4h3.4l0.1 3.8-0.4 0.8-1.4 2.6"/>
  <path d="m132.1 18.9" fill="#a1ee59"/>
</svg>
